<svg width="20" height="20" viewBox="0 0 20 20" fill="none" xmlns="http://www.w3.org/2000/svg">
<path fill-rule="evenodd" clip-rule="evenodd" d="M19.4286 9.99998C19.4286 15.2072 15.2072 19.4286 9.99998 19.4286C4.79273 19.4286 0.571411 15.2072 0.571411 9.99998C0.571411 4.79273 4.79273 0.571411 9.99998 0.571411C15.2072 0.571411 19.4286 4.79273 19.4286 9.99998ZM3.51511 10.8008C3.7829 10.533 4.21707 10.533 4.48486 10.8008L5.8857 12.2017V6.14284C5.8857 5.76413 6.1927 5.45713 6.57141 5.45713C6.95012 5.45713 7.25713 5.76413 7.25713 6.14284V12.2017L8.65797 10.8008C8.92576 10.533 9.35992 10.533 9.62771 10.8008C9.8955 11.0686 9.8955 11.5028 9.62771 11.7706L7.05628 14.342C6.7885 14.6098 6.35433 14.6098 6.08654 14.342L3.51511 11.7706C3.24732 11.5028 3.24732 11.0686 3.51511 10.8008ZM15.5151 9.19914C15.7829 9.46693 16.2171 9.46693 16.4849 9.19914C16.7526 8.93135 16.7526 8.49718 16.4849 8.2294L13.9134 5.65797C13.6456 5.39018 13.2115 5.39018 12.9437 5.65797L10.3723 8.2294C10.1045 8.49718 10.1045 8.93135 10.3723 9.19914C10.64 9.46693 11.0742 9.46693 11.342 9.19914L12.7428 7.7983V13.8571C12.7428 14.2358 13.0498 14.5428 13.4286 14.5428C13.8073 14.5428 14.1143 14.2358 14.1143 13.8571V7.7983L15.5151 9.19914Z" fill="#007AFF"/>
</svg>
