<svg width="195" height="56" viewBox="0 0 195 56" fill="none" xmlns="http://www.w3.org/2000/svg">
<path fill-rule="evenodd" clip-rule="evenodd" d="M158.8 28C158.8 22.3667 163.367 17.8 169 17.8C174.633 17.8 179.2 22.3667 179.2 28C179.2 33.6333 174.633 38.2 169 38.2C163.367 38.2 158.8 33.6333 158.8 28ZM169 16.2C162.483 16.2 157.2 21.4831 157.2 28C157.2 34.517 162.483 39.8 169 39.8C175.517 39.8 180.8 34.517 180.8 28C180.8 21.4831 175.517 16.2 169 16.2ZM169 29.25C169.69 29.25 170.25 28.6904 170.25 28C170.25 27.3097 169.69 26.75 169 26.75C168.31 26.75 167.75 27.3097 167.75 28C167.75 28.6904 168.31 29.25 169 29.25ZM165.25 28C165.25 28.6904 164.69 29.25 164 29.25C163.31 29.25 162.75 28.6904 162.75 28C162.75 27.3097 163.31 26.75 164 26.75C164.69 26.75 165.25 27.3097 165.25 28ZM174 29.25C174.69 29.25 175.25 28.6904 175.25 28C175.25 27.3097 174.69 26.75 174 26.75C173.31 26.75 172.75 27.3097 172.75 28C172.75 28.6904 173.31 29.25 174 29.25Z" fill="#007AFF"/>
</svg>
