<svg width="20" height="20" viewBox="0 0 20 20" fill="none" xmlns="http://www.w3.org/2000/svg">
<path fill-rule="evenodd" clip-rule="evenodd" d="M10.0009 19.4999C15.2476 19.4999 19.5009 15.2466 19.5009 9.99988C19.5009 4.75317 15.2476 0.499878 10.0009 0.499877C4.75415 0.499877 0.500856 4.75317 0.500855 9.99988C0.500855 15.2466 4.75415 19.4999 10.0009 19.4999ZM9.46955 14.8159C9.76244 15.1088 10.2373 15.1088 10.5302 14.8159L13.9588 11.3874C14.2517 11.0945 14.2517 10.6196 13.9588 10.3267C13.6659 10.0338 13.191 10.0338 12.8981 10.3267L10.7499 12.4749L10.7499 5.71416C10.7499 5.29995 10.4141 4.96416 9.99988 4.96416C9.58567 4.96416 9.24988 5.29995 9.24988 5.71416L9.24988 12.4749L7.10164 10.3267C6.80874 10.0338 6.33387 10.0338 6.04098 10.3267C5.74808 10.6196 5.74808 11.0945 6.04098 11.3873L9.46955 14.8159Z" fill="#007AFF"/>
</svg>
