<svg width="20" height="19" viewBox="0 0 20 19" fill="none" xmlns="http://www.w3.org/2000/svg">
<path fill-rule="evenodd" clip-rule="evenodd" d="M1.83504 9.24997C1.83504 7.05491 2.78045 4.83289 4.22884 3.36459C4.95314 2.63033 5.78037 2.10229 6.66504 1.84671V2.49998C6.66504 7.9317 11.0683 12.335 16.5 12.335H17.2985C17.1039 13.4401 16.5026 14.4411 15.6217 15.2535C14.3447 16.4313 12.5212 17.165 10.6768 17.165H9.75004C5.3787 17.165 1.83504 13.6213 1.83504 9.24997ZM17.2818 10.665C16.9693 8.90987 16.1148 7.29564 13.9096 5.0904C12.1793 3.36007 10.7858 2.44611 9.39539 1.94506C9.03938 1.81677 8.68514 1.73552 8.33504 1.69787V2.49998C8.33504 7.00939 11.9906 10.665 16.5 10.665H17.2818ZM9.96155 0.37396C7.30561 -0.583122 4.80675 0.4007 3.03993 2.19181C1.28569 3.97018 0.165039 6.61254 0.165039 9.24997C0.165039 14.5436 4.45639 18.835 9.75004 18.835H10.6768C12.941 18.835 15.1686 17.9432 16.7539 16.4811C18.3478 15.0111 19.3329 12.9177 18.9576 10.5602C18.5961 8.28908 17.5218 6.3409 15.0905 3.90954C13.2499 2.069 11.6548 0.98415 9.96155 0.37396Z" fill="#8E8E93"/>
</svg>
